# xmcd
#
# Track frame offsets: 
#        150
#        35760
#        60410
#        78707
#        198910
#        229830
#        257125
#
# Disc length: 3935 seconds
#
# Revision: 1
# Processed by: cddbd v1.5.2PL0 Copyright (c) Steve Scherf et al.
# Submitted via: ExactAudioCopyFreeDBPlugin 1.0
#
DISCID=5b0f5d07
DTITLE=Takeshi Inomata - Ex-Spiral
DYEAR=1999
DGENRE=Jazz
TTITLE0=Heart Beats Of The Good Earth
TTITLE1=Capoela
TTITLE2=Act And Silence
TTITLE3=Popcorn City
TTITLE4=Polytonality
TTITLE5=Fools Rush In
TTITLE6=Dig
EXTD=YEAR: 0
EXTT0=
EXTT1=
EXTT2=
EXTT3=
EXTT4=
EXTT5=
EXTT6=
PLAYORDER=
